<?xml version="1.0"?>
<svg width="1920" height="971" xmlns="http://www.w3.org/2000/svg" xmlns:svg="http://www.w3.org/2000/svg">
 <g>
  <title>Layer 1</title>
  <g id="svg_1" opacity="0.25">
   <path id="svg_2" d="m-153,-121l-20,458l50,-198l-30,-260z" fill="#f8f8f8" stroke="#f8f8f8"/>
   <path id="svg_3" d="m-153,-121l30,260l238,-31l-268,-229z" fill="#f8f8f8" stroke="#f8f8f8"/>
   <path id="svg_4" d="m-153,-121l268,229l51,-261l-319,32z" fill="#f6f6f6" stroke="#f6f6f6"/>
   <path id="svg_5" d="m166,-153l-51,261l282,-53l-231,-208z" fill="#efefef" stroke="#efefef"/>
   <path id="svg_6" d="m166,-153l231,208l4,-115l-235,-93z" fill="#ebebeb" stroke="#ebebeb"/>
   <path id="svg_7" d="m166,-153l235,93l249,-110l-484,17z" fill="#e8e8e8" stroke="#e8e8e8"/>
   <path id="svg_8" d="m166,-153l484,-17l209,-14l-693,31z" fill="#e2e2e2" stroke="#e2e2e2"/>
   <path id="svg_9" d="m401,-60l-4,115l247,8l-243,-123z" fill="#e4e4e4" stroke="#e4e4e4"/>
   <path id="svg_10" d="m401,-60l243,123l6,-233l-249,110z" fill="#e1e1e1" stroke="#e1e1e1"/>
   <path id="svg_11" d="m650,-170l-6,233l215,-247l-209,14z" fill="#d9d9d9" stroke="#d9d9d9"/>
   <path id="svg_12" d="m859,-184l-215,247l248,23l-33,-270z" fill="#d3d3d3" stroke="#d3d3d3"/>
   <path id="svg_13" d="m859,-184l33,270l242,-227l-275,-43z" fill="#c8c8c8" stroke="#c8c8c8"/>
   <path id="svg_14" d="m859,-184l275,43l136,-28l-411,-15z" fill="#bfbfbf" stroke="#bfbfbf"/>
   <path id="svg_15" d="m1134,-141l-242,227l236,0l6,-227z" fill="#c1c1c1" stroke="#c1c1c1"/>
   <path id="svg_16" d="m1134,-141l-6,227l142,-255l-136,28z" fill="#b8b8b8" stroke="#b8b8b8"/>
   <path id="svg_17" d="m1270,-169l-142,255l217,43l-75,-298z" fill="#b3b3b3" stroke="#b3b3b3"/>
   <path id="svg_18" d="m1270,-169l75,298l198,-194l-273,-104z" fill="#aaaaaa" stroke="#aaaaaa"/>
   <path id="svg_19" d="m1270,-169l273,104l201,-4l-474,-100z" fill="#a0a0a0" stroke="#a0a0a0"/>
   <path id="svg_20" d="m1270,-169l474,100l294,-4l-768,-96z" fill="#959595" stroke="#959595"/>
   <path id="svg_21" d="m1543,-65l-198,194l229,-57l-31,-137z" fill="#a1a1a1" stroke="#a1a1a1"/>
   <path id="svg_22" d="m1543,-65l31,137l170,-141l-201,4z" fill="#999999" stroke="#999999"/>
   <path id="svg_23" d="m1744,-69l-170,141l228,77l-58,-218z" fill="#919191" stroke="#919191"/>
   <path id="svg_24" d="m1744,-69l58,218l236,-222l-294,4z" fill="#888888" stroke="#888888"/>
   <path id="svg_25" d="m2038,-73l-236,222l253,9l-17,-231z" fill="#7e7e7e" stroke="#7e7e7e"/>
   <path id="svg_26" d="m-123,139l-50,198l288,-229l-238,31z" fill="#f1f1f1" stroke="#f1f1f1"/>
   <path id="svg_27" d="m115,108l-288,229l351,63l-63,-292z" fill="#e9e9e9" stroke="#e9e9e9"/>
   <path id="svg_28" d="m115,108l63,292l155,-88l-218,-204z" fill="#e3e3e3" stroke="#e3e3e3"/>
   <path id="svg_29" d="m115,108l218,204l64,-257l-282,53z" fill="#e5e5e5" stroke="#e5e5e5"/>
   <path id="svg_30" d="m397,55l-64,257l323,42l-259,-299z" fill="#dadada" stroke="#dadada"/>
   <path id="svg_31" d="m397,55l259,299l-12,-291l-247,-8z" fill="#dadada" stroke="#dadada"/>
   <path id="svg_32" d="m644,63l12,291l236,-268l-248,-23z" fill="#d0d0d0" stroke="#d0d0d0"/>
   <path id="svg_33" d="m892,86l-236,268l146,42l90,-310z" fill="#c7c7c7" stroke="#c7c7c7"/>
   <path id="svg_34" d="m892,86l-90,310l270,-81l-180,-229z" fill="#bebebe" stroke="#bebebe"/>
   <path id="svg_35" d="m892,86l180,229l56,-229l-236,0z" fill="#bbbbbb" stroke="#bbbbbb"/>
   <path id="svg_36" d="m1128,86l-56,229l273,-186l-217,-43z" fill="#b0b0b0" stroke="#b0b0b0"/>
   <path id="svg_37" d="m1345,129l-273,186l310,87l-37,-273z" fill="#a5a5a5" stroke="#a5a5a5"/>
   <path id="svg_38" d="m1345,129l37,273l118,-18l-155,-255z" fill="#9a9a9a" stroke="#9a9a9a"/>
   <path id="svg_39" d="m1345,129l155,255l74,-312l-229,57z" fill="#9b9b9b" stroke="#9b9b9b"/>
   <path id="svg_40" d="m1574,72l-74,312l299,-85l-225,-227z" fill="#8e8e8e" stroke="#8e8e8e"/>
   <path id="svg_41" d="m1574,72l225,227l3,-150l-228,-77z" fill="#8a8a8a" stroke="#8a8a8a"/>
   <path id="svg_42" d="m1802,149l-3,150l256,-141l-253,-9z" fill="#7d7d7d" stroke="#7d7d7d"/>
   <path id="svg_43" d="m2055,158l-256,141l178,111l78,-252z" fill="#757575" stroke="#757575"/>
   <path id="svg_44" d="m2055,158l-78,252l69,126l9,-378z" fill="#696969" stroke="#696969"/>
   <path id="svg_45" d="m2055,158l-9,378l55,319l-46,-697z" fill="#515151" stroke="#515151"/>
   <path id="svg_46" d="m-173,337l34,510l45,-301l-79,-209z" fill="#c4c4c4" stroke="#c4c4c4"/>
   <path id="svg_47" d="m-173,337l79,209l272,-146l-351,-63z" fill="#d9d9d9" stroke="#d9d9d9"/>
   <path id="svg_48" d="m178,400l-272,146l160,68l112,-214z" fill="#c6c6c6" stroke="#c6c6c6"/>
   <path id="svg_49" d="m178,400l-112,214l329,-5l-217,-209z" fill="#bcbcbc" stroke="#bcbcbc"/>
   <path id="svg_50" d="m178,400l217,209l-62,-297l-155,88z" fill="#c9c9c9" stroke="#c9c9c9"/>
   <path id="svg_51" d="m333,312l62,297l261,-255l-323,-42z" fill="#c6c6c6" stroke="#c6c6c6"/>
   <path id="svg_52" d="m656,354l-261,255l156,35l105,-290z" fill="#b0b0b0" stroke="#b0b0b0"/>
   <path id="svg_53" d="m656,354l-105,290l251,-248l-146,-42z" fill="#b6b6b6" stroke="#b6b6b6"/>
   <path id="svg_54" d="m802,396l-251,248l344,-23l-93,-225z" fill="#a2a2a2" stroke="#a2a2a2"/>
   <path id="svg_55" d="m802,396l93,225l177,-306l-270,81z" fill="#a7a7a7" stroke="#a7a7a7"/>
   <path id="svg_56" d="m1072,315l-177,306l213,26l-36,-332z" fill="#939393" stroke="#939393"/>
   <path id="svg_57" d="m1072,315l36,332l274,-245l-310,-87z" fill="#939393" stroke="#939393"/>
   <path id="svg_58" d="m1382,402l-274,245l220,-27l54,-218z" fill="#7c7c7c" stroke="#7c7c7c"/>
   <path id="svg_59" d="m1382,402l-54,218l225,32l-171,-250z" fill="#727272" stroke="#727272"/>
   <path id="svg_60" d="m1382,402l171,250l-53,-268l-118,18z" fill="#7b7b7b" stroke="#7b7b7b"/>
   <path id="svg_61" d="m1500,384l53,268l189,-80l-242,-188z" fill="#696969" stroke="#696969"/>
   <path id="svg_62" d="m1500,384l242,188l57,-273l-299,85z" fill="#777777" stroke="#777777"/>
   <path id="svg_63" d="m1799,299l-57,273l235,-162l-178,-111z" fill="#6a6a6a" stroke="#6a6a6a"/>
   <path id="svg_64" d="m1977,410l-235,162l304,-36l-69,-126z" fill="#575757" stroke="#575757"/>
   <path id="svg_65" d="m-94,546l-45,301l205,-233l-160,-68z" fill="#b2b2b2" stroke="#b2b2b2"/>
   <path id="svg_66" d="m66,614l-205,233l246,16l-41,-249z" fill="#9e9e9e" stroke="#9e9e9e"/>
   <path id="svg_67" d="m66,614l41,249l287,-45l-328,-204z" fill="#989898" stroke="#989898"/>
   <path id="svg_68" d="m66,614l328,204l1,-209l-329,5z" fill="#a2a2a2" stroke="#a2a2a2"/>
   <path id="svg_69" d="m395,609l-1,209l157,-174l-156,-35z" fill="#9a9a9a" stroke="#9a9a9a"/>
   <path id="svg_70" d="m551,644l-157,174l198,52l-41,-226z" fill="#898989" stroke="#898989"/>
   <path id="svg_71" d="m551,644l41,226l285,-54l-326,-172z" fill="#828282" stroke="#828282"/>
   <path id="svg_72" d="m551,644l326,172l18,-195l-344,23z" fill="#898989" stroke="#898989"/>
   <path id="svg_73" d="m895,621l-18,195l231,-169l-213,-26z" fill="#7b7b7b" stroke="#7b7b7b"/>
   <path id="svg_74" d="m1108,647l-231,169l161,54l70,-223z" fill="#6a6a6a" stroke="#6a6a6a"/>
   <path id="svg_75" d="m1108,647l-70,223l235,-85l-165,-138z" fill="#636363" stroke="#636363"/>
   <path id="svg_76" d="m1108,647l165,138l55,-165l-220,27z" fill="#6a6a6a" stroke="#6a6a6a"/>
   <path id="svg_77" d="m1328,620l-55,165l258,10l-203,-175z" fill="#585858" stroke="#585858"/>
   <path id="svg_78" d="m1328,620l203,175l22,-143l-225,-32z" fill="#585858" stroke="#585858"/>
   <path id="svg_79" d="m1553,652l-22,143l213,-11l-191,-132z" fill="#464646" stroke="#464646"/>
   <path id="svg_80" d="m1553,652l191,132l-2,-212l-189,80z" fill="#4d4d4d" stroke="#4d4d4d"/>
   <path id="svg_81" d="m1742,572l2,212l302,-248l-304,36z" fill="#484848" stroke="#484848"/>
   <path id="svg_82" d="m2046,536l-302,248l357,71l-55,-319z" fill="#303030" stroke="#303030"/>
   <path id="svg_83" d="m-139,847l68,458l-9,-289l-59,-169z" fill="#7c7c7c" stroke="#7c7c7c"/>
   <path id="svg_84" d="m-139,847l59,169l187,-153l-246,-16z" fill="#8a8a8a" stroke="#8a8a8a"/>
   <path id="svg_85" d="m107,863l-187,153l160,42l27,-195z" fill="#7b7b7b" stroke="#7b7b7b"/>
   <path id="svg_86" d="m107,863l-27,195l243,79l-216,-274z" fill="#717171" stroke="#717171"/>
   <path id="svg_87" d="m107,863l216,274l71,-319l-287,45z" fill="#787878" stroke="#787878"/>
   <path id="svg_88" d="m394,818l-71,319l269,-267l-198,-52z" fill="#717171" stroke="#717171"/>
   <path id="svg_89" d="m592,870l-269,267l272,3l-3,-270z" fill="#646464" stroke="#646464"/>
   <path id="svg_90" d="m592,870l3,270l255,-15l-258,-255z" fill="#5c5c5c" stroke="#5c5c5c"/>
   <path id="svg_91" d="m592,870l258,255l27,-309l-285,54z" fill="#606060" stroke="#606060"/>
   <path id="svg_92" d="m877,816l-27,309l173,-33l-146,-276z" fill="#4b4b4b" stroke="#4b4b4b"/>
   <path id="svg_93" d="m877,816l146,276l15,-222l-161,-54z" fill="#545454" stroke="#545454"/>
   <path id="svg_94" d="m1038,870l-15,222l325,-48l-310,-174z" fill="#3c3c3c" stroke="#3c3c3c"/>
   <path id="svg_95" d="m1038,870l310,174l-75,-259l-235,85z" fill="#474747" stroke="#474747"/>
   <path id="svg_96" d="m1273,785l75,259l183,-249l-258,-10z" fill="#404040" stroke="#404040"/>
   <path id="svg_97" d="m1531,795l-183,249l202,-21l-19,-228z" fill="#2c2c2c" stroke="#2c2c2c"/>
   <path id="svg_98" d="m1531,795l19,228l194,-239l-213,11z" fill="#313131" stroke="#313131"/>
   <path id="svg_99" d="m1744,784l-194,239l189,53l5,-292z" fill="#1d1d1d" stroke="#1d1d1d"/>
   <path id="svg_100" d="m1744,784l-5,292l362,-221l-357,-71z" fill="#191919" stroke="#191919"/>
   <path id="svg_101" d="m2101,855l-362,221l349,15l13,-236z" fill="#010101" stroke="#010101"/>
   <path id="svg_102" d="m-80,1016l9,289l151,-247l-160,-42z" fill="#797979" stroke="#797979"/>
   <path id="svg_103" d="m80,1058l-151,247l197,12l-46,-259z" fill="#767676" stroke="#767676"/>
   <path id="svg_104" d="m80,1058l46,259l197,-180l-243,-79z" fill="#717171" stroke="#717171"/>
   <path id="svg_105" d="m323,1137l-197,180l180,48l17,-228z" fill="#6e6e6e" stroke="#6e6e6e"/>
   <path id="svg_106" d="m323,1137l-17,228l289,-225l-272,-3z" fill="#686868" stroke="#686868"/>
   <path id="svg_107" d="m595,1140l-289,225l322,-8l-33,-217z" fill="#646464" stroke="#646464"/>
   <path id="svg_108" d="m595,1140l33,217l178,-6l-211,-211z" fill="#5c5c5c" stroke="#5c5c5c"/>
   <path id="svg_109" d="m595,1140l211,211l44,-226l-255,15z" fill="#575757" stroke="#575757"/>
   <path id="svg_110" d="m850,1125l-44,226l234,-26l-190,-200z" fill="#4d4d4d" stroke="#4d4d4d"/>
   <path id="svg_111" d="m850,1125l190,200l-17,-233l-173,33z" fill="#474747" stroke="#474747"/>
   <path id="svg_112" d="m1023,1092l17,233l249,-44l-266,-189z" fill="#3d3d3d" stroke="#3d3d3d"/>
   <path id="svg_113" d="m1023,1092l266,189l59,-237l-325,48z" fill="#363636" stroke="#363636"/>
   <path id="svg_114" d="m1348,1044l-59,237l214,51l-155,-288z" fill="#2b2b2b" stroke="#2b2b2b"/>
   <path id="svg_115" d="m1348,1044l155,288l47,-309l-202,21z" fill="#252525" stroke="#252525"/>
   <path id="svg_116" d="m1550,1023l-47,309l236,-256l-189,-53z" fill="#1b1b1b" stroke="#1b1b1b"/>
   <path id="svg_117" d="m1739,1076l-236,256l260,-61l-24,-195z" fill="#161616" stroke="#161616"/>
   <path id="svg_118" d="m1739,1076l24,195l325,-180l-349,-15z" fill="#090909" stroke="#090909"/>
   <path id="svg_119" d="m2088,1091l-325,180l273,78l52,-258z" fill="#020202" stroke="#020202"/>
   <path id="svg_120" d="m-71,1305l377,60l-180,-48l-197,-12z" fill="#737373" stroke="#737373"/>
   <path id="svg_121" d="m306,1365l1730,-16l-1408,8l-322,8z" fill="#464646" stroke="#464646"/>
   <path id="svg_122" d="m628,1357l1408,-8l-1230,2l-178,6z" fill="#3a3a3a" stroke="#3a3a3a"/>
   <path id="svg_123" d="m806,1351l1230,-2l-533,-17l-697,19z" fill="#262626" stroke="#262626"/>
   <path id="svg_124" d="m806,1351l697,-19l-463,-7l-234,26z" fill="#3d3d3d" stroke="#3d3d3d"/>
   <path id="svg_125" d="m1040,1325l463,7l-214,-51l-249,44z" fill="#323232" stroke="#323232"/>
   <path id="svg_126" d="m1503,1332l533,17l-273,-78l-260,61z" fill="#0f0f0f" stroke="#0f0f0f"/>
  </g>
 </g>
</svg>