<svg xmlns="http://www.w3.org/2000/svg" width="1920" height="971"><g><title>Layer 1</title><g opacity="0.27"><path stroke="#f8f8f8" fill="#f8f8f8" d="m-153 -121l-20 458l50 -198l-30 -260z"/><path stroke="#f8f8f8" fill="#f8f8f8" d="m-153 -121l30 260l238 -31l-268 -229z"/><path stroke="#f6f6f6" fill="#f6f6f6" d="m-153 -121l268 229l51 -261l-319 32z"/><path stroke="#efefef" fill="#efefef" d="m166 -153l-51 261l282 -53l-231 -208z"/><path stroke="#ebebeb" fill="#ebebeb" d="m166 -153l231 208l4 -115l-235 -93z"/><path stroke="#e8e8e8" fill="#e8e8e8" d="m166 -153l235 93l249 -110l-484 17z"/><path stroke="#e2e2e2" fill="#e2e2e2" d="m166 -153l484 -17l209 -14l-693 31z"/><path stroke="#e4e4e4" fill="#e4e4e4" d="m401 -60l-4 115l247 8l-243 -123z"/><path stroke="#e1e1e1" fill="#e1e1e1" d="m401 -60l243 123l6 -233l-249 110z"/><path stroke="#d9d9d9" fill="#d9d9d9" d="m650 -170l-6 233l215 -247l-209 14z"/><path stroke="#d3d3d3" fill="#d3d3d3" d="m859 -184l-215 247l248 23l-33 -270z"/><path stroke="#c8c8c8" fill="#c8c8c8" d="m859 -184l33 270l242 -227l-275 -43z"/><path stroke="#bfbfbf" fill="#bfbfbf" d="m859 -184l275 43l136 -28l-411 -15z"/><path stroke="#c1c1c1" fill="#c1c1c1" d="m1134 -141l-242 227l236 0l6 -227z"/><path stroke="#b8b8b8" fill="#b8b8b8" d="m1134 -141l-6 227l142 -255l-136 28z"/><path stroke="#b3b3b3" fill="#b3b3b3" d="m1270 -169l-142 255l217 43l-75 -298z"/><path stroke="#aaaaaa" fill="#aaaaaa" d="m1270 -169l75 298l198 -194l-273 -104z"/><path stroke="#a0a0a0" fill="#a0a0a0" d="m1270 -169l273 104l201 -4l-474 -100z"/><path stroke="#959595" fill="#959595" d="m1270 -169l474 100l294 -4l-768 -96z"/><path stroke="#a1a1a1" fill="#a1a1a1" d="m1543 -65l-198 194l229 -57l-31 -137z"/><path stroke="#999999" fill="#999999" d="m1543 -65l31 137l170 -141l-201 4z"/><path stroke="#919191" fill="#919191" d="m1744 -69l-170 141l228 77l-58 -218z"/><path stroke="#888888" fill="#888888" d="m1744 -69l58 218l236 -222l-294 4z"/><path stroke="#7e7e7e" fill="#7e7e7e" d="m2038 -73l-236 222l253 9l-17 -231z"/><path stroke="#f1f1f1" fill="#f1f1f1" d="m-123 139l-50 198l288 -229l-238 31z"/><path stroke="#e9e9e9" fill="#e9e9e9" d="m115 108l-288 229l351 63l-63 -292z"/><path stroke="#e3e3e3" fill="#e3e3e3" d="m115 108l63 292l155 -88l-218 -204z"/><path stroke="#e5e5e5" fill="#e5e5e5" d="m115 108l218 204l64 -257l-282 53z"/><path stroke="#dadada" fill="#dadada" d="m397 55l-64 257l323 42l-259 -299z"/><path stroke="#dadada" fill="#dadada" d="m397 55l259 299l-12 -291l-247 -8z"/><path stroke="#d0d0d0" fill="#d0d0d0" d="m644 63l12 291l236 -268l-248 -23z"/><path stroke="#c7c7c7" fill="#c7c7c7" d="m892 86l-236 268l146 42l90 -310z"/><path stroke="#bebebe" fill="#bebebe" d="m892 86l-90 310l270 -81l-180 -229z"/><path stroke="#bbbbbb" fill="#bbbbbb" d="m892 86l180 229l56 -229l-236 0z"/><path stroke="#b0b0b0" fill="#b0b0b0" d="m1128 86l-56 229l273 -186l-217 -43z"/><path stroke="#a5a5a5" fill="#a5a5a5" d="m1345 129l-273 186l310 87l-37 -273z"/><path stroke="#9a9a9a" fill="#9a9a9a" d="m1345 129l37 273l118 -18l-155 -255z"/><path stroke="#9b9b9b" fill="#9b9b9b" d="m1345 129l155 255l74 -312l-229 57z"/><path stroke="#8e8e8e" fill="#8e8e8e" d="m1574 72l-74 312l299 -85l-225 -227z"/><path stroke="#8a8a8a" fill="#8a8a8a" d="m1574 72l225 227l3 -150l-228 -77z"/><path stroke="#7d7d7d" fill="#7d7d7d" d="m1802 149l-3 150l256 -141l-253 -9z"/><path stroke="#757575" fill="#757575" d="m2055 158l-256 141l178 111l78 -252z"/><path stroke="#696969" fill="#696969" d="m2055 158l-78 252l69 126l9 -378z"/><path stroke="#515151" fill="#515151" d="m2055 158l-9 378l55 319l-46 -697z"/><path stroke="#c4c4c4" fill="#c4c4c4" d="m-173 337l34 510l45 -301l-79 -209z"/><path stroke="#d9d9d9" fill="#d9d9d9" d="m-173 337l79 209l272 -146l-351 -63z"/><path stroke="#c6c6c6" fill="#c6c6c6" d="m178 400l-272 146l160 68l112 -214z"/><path stroke="#bcbcbc" fill="#bcbcbc" d="m178 400l-112 214l329 -5l-217 -209z"/><path stroke="#c9c9c9" fill="#c9c9c9" d="m178 400l217 209l-62 -297l-155 88z"/><path stroke="#c6c6c6" fill="#c6c6c6" d="m333 312l62 297l261 -255l-323 -42z"/><path stroke="#b0b0b0" fill="#b0b0b0" d="m656 354l-261 255l156 35l105 -290z"/><path stroke="#b6b6b6" fill="#b6b6b6" d="m656 354l-105 290l251 -248l-146 -42z"/><path stroke="#a2a2a2" fill="#a2a2a2" d="m802 396l-251 248l344 -23l-93 -225z"/><path stroke="#a7a7a7" fill="#a7a7a7" d="m802 396l93 225l177 -306l-270 81z"/><path stroke="#939393" fill="#939393" d="m1072 315l-177 306l213 26l-36 -332z"/><path stroke="#939393" fill="#939393" d="m1072 315l36 332l274 -245l-310 -87z"/><path stroke="#7c7c7c" fill="#7c7c7c" d="m1382 402l-274 245l220 -27l54 -218z"/><path stroke="#727272" fill="#727272" d="m1382 402l-54 218l225 32l-171 -250z"/><path stroke="#7b7b7b" fill="#7b7b7b" d="m1382 402l171 250l-53 -268l-118 18z"/><path stroke="#696969" fill="#696969" d="m1500 384l53 268l189 -80l-242 -188z"/><path stroke="#777777" fill="#777777" d="m1500 384l242 188l57 -273l-299 85z"/><path stroke="#6a6a6a" fill="#6a6a6a" d="m1799 299l-57 273l235 -162l-178 -111z"/><path stroke="#575757" fill="#575757" d="m1977 410l-235 162l304 -36l-69 -126z"/><path stroke="#b2b2b2" fill="#b2b2b2" d="m-94 546l-45 301l205 -233l-160 -68z"/><path stroke="#9e9e9e" fill="#9e9e9e" d="m66 614l-205 233l246 16l-41 -249z"/><path stroke="#989898" fill="#989898" d="m66 614l41 249l287 -45l-328 -204z"/><path stroke="#a2a2a2" fill="#a2a2a2" d="m66 614l328 204l1 -209l-329 5z"/><path stroke="#9a9a9a" fill="#9a9a9a" d="m395 609l-1 209l157 -174l-156 -35z"/><path stroke="#898989" fill="#898989" d="m551 644l-157 174l198 52l-41 -226z"/><path stroke="#828282" fill="#828282" d="m551 644l41 226l285 -54l-326 -172z"/><path stroke="#898989" fill="#898989" d="m551 644l326 172l18 -195l-344 23z"/><path stroke="#7b7b7b" fill="#7b7b7b" d="m895 621l-18 195l231 -169l-213 -26z"/><path stroke="#6a6a6a" fill="#6a6a6a" d="m1108 647l-231 169l161 54l70 -223z"/><path stroke="#636363" fill="#636363" d="m1108 647l-70 223l235 -85l-165 -138z"/><path stroke="#6a6a6a" fill="#6a6a6a" d="m1108 647l165 138l55 -165l-220 27z"/><path stroke="#585858" fill="#585858" d="m1328 620l-55 165l258 10l-203 -175z"/><path stroke="#585858" fill="#585858" d="m1328 620l203 175l22 -143l-225 -32z"/><path stroke="#464646" fill="#464646" d="m1553 652l-22 143l213 -11l-191 -132z"/><path stroke="#4d4d4d" fill="#4d4d4d" d="m1553 652l191 132l-2 -212l-189 80z"/><path stroke="#484848" fill="#484848" d="m1742 572l2 212l302 -248l-304 36z"/><path stroke="#303030" fill="#303030" d="m2046 536l-302 248l357 71l-55 -319z"/><path stroke="#7c7c7c" fill="#7c7c7c" d="m-139 847l68 458l-9 -289l-59 -169z"/><path stroke="#8a8a8a" fill="#8a8a8a" d="m-139 847l59 169l187 -153l-246 -16z"/><path stroke="#7b7b7b" fill="#7b7b7b" d="m107 863l-187 153l160 42l27 -195z"/><path stroke="#717171" fill="#717171" d="m107 863l-27 195l243 79l-216 -274z"/><path stroke="#787878" fill="#787878" d="m107 863l216 274l71 -319l-287 45z"/><path stroke="#717171" fill="#717171" d="m394 818l-71 319l269 -267l-198 -52z"/><path stroke="#646464" fill="#646464" d="m592 870l-269 267l272 3l-3 -270z"/><path stroke="#5c5c5c" fill="#5c5c5c" d="m592 870l3 270l255 -15l-258 -255z"/><path stroke="#606060" fill="#606060" d="m592 870l258 255l27 -309l-285 54z"/><path stroke="#4b4b4b" fill="#4b4b4b" d="m877 816l-27 309l173 -33l-146 -276z"/><path stroke="#545454" fill="#545454" d="m877 816l146 276l15 -222l-161 -54z"/><path stroke="#3c3c3c" fill="#3c3c3c" d="m1038 870l-15 222l325 -48l-310 -174z"/><path stroke="#474747" fill="#474747" d="m1038 870l310 174l-75 -259l-235 85z"/><path stroke="#404040" fill="#404040" d="m1273 785l75 259l183 -249l-258 -10z"/><path stroke="#2c2c2c" fill="#2c2c2c" d="m1531 795l-183 249l202 -21l-19 -228z"/><path stroke="#313131" fill="#313131" d="m1531 795l19 228l194 -239l-213 11z"/><path stroke="#1d1d1d" fill="#1d1d1d" d="m1744 784l-194 239l189 53l5 -292z"/><path stroke="#191919" fill="#191919" d="m1744 784l-5 292l362 -221l-357 -71z"/><path stroke="#010101" fill="#010101" d="m2101 855l-362 221l349 15l13 -236z"/><path stroke="#797979" fill="#797979" d="m-80 1016l9 289l151 -247l-160 -42z"/><path stroke="#767676" fill="#767676" d="m80 1058l-151 247l197 12l-46 -259z"/><path stroke="#717171" fill="#717171" d="m80 1058l46 259l197 -180l-243 -79z"/><path stroke="#6e6e6e" fill="#6e6e6e" d="m323 1137l-197 180l180 48l17 -228z"/><path stroke="#686868" fill="#686868" d="m323 1137l-17 228l289 -225l-272 -3z"/><path stroke="#646464" fill="#646464" d="m595 1140l-289 225l322 -8l-33 -217z"/><path stroke="#5c5c5c" fill="#5c5c5c" d="m595 1140l33 217l178 -6l-211 -211z"/><path stroke="#575757" fill="#575757" d="m595 1140l211 211l44 -226l-255 15z"/><path stroke="#4d4d4d" fill="#4d4d4d" d="m850 1125l-44 226l234 -26l-190 -200z"/><path stroke="#474747" fill="#474747" d="m850 1125l190 200l-17 -233l-173 33z"/><path stroke="#3d3d3d" fill="#3d3d3d" d="m1023 1092l17 233l249 -44l-266 -189z"/><path stroke="#363636" fill="#363636" d="m1023 1092l266 189l59 -237l-325 48z"/><path stroke="#2b2b2b" fill="#2b2b2b" d="m1348 1044l-59 237l214 51l-155 -288z"/><path stroke="#252525" fill="#252525" d="m1348 1044l155 288l47 -309l-202 21z"/><path stroke="#1b1b1b" fill="#1b1b1b" d="m1550 1023l-47 309l236 -256l-189 -53z"/><path stroke="#161616" fill="#161616" d="m1739 1076l-236 256l260 -61l-24 -195z"/><path stroke="#090909" fill="#090909" d="m1739 1076l24 195l325 -180l-349 -15z"/><path stroke="#020202" fill="#020202" d="m2088 1091l-325 180l273 78l52 -258z"/><path stroke="#737373" fill="#737373" d="m-71 1305l377 60l-180 -48l-197 -12z"/><path stroke="#464646" fill="#464646" d="m306 1365l1730 -16l-1408 8l-322 8z"/><path stroke="#3a3a3a" fill="#3a3a3a" d="m628 1357l1408 -8l-1230 2l-178 6z"/><path stroke="#262626" fill="#262626" d="m806 1351l1230 -2l-533 -17l-697 19z"/><path stroke="#3d3d3d" fill="#3d3d3d" d="m806 1351l697 -19l-463 -7l-234 26z"/><path stroke="#323232" fill="#323232" d="m1040 1325l463 7l-214 -51l-249 44z"/><path stroke="#0f0f0f" fill="#0f0f0f" d="m1503 1332l533 17l-273 -78l-260 61z"/></g></g></svg>