<svg width="1920" height="971" xmlns="http://www.w3.org/2000/svg"><g><path d="M-153,-121L-173,337L-123,139Z" fill="#f8f8f8" stroke="#f8f8f8"/><path d="M-153,-121L-123,139L115,108Z" fill="#f8f8f8" stroke="#f8f8f8"/><path d="M-153,-121L115,108L166,-153Z" fill="#f6f6f6" stroke="#f6f6f6"/><path d="M166,-153L115,108L397,55Z" fill="#efefef" stroke="#efefef"/><path d="M166,-153L397,55L401,-60Z" fill="#ebebeb" stroke="#ebebeb"/><path d="M166,-153L401,-60L650,-170Z" fill="#e8e8e8" stroke="#e8e8e8"/><path d="M166,-153L650,-170L859,-184Z" fill="#e2e2e2" stroke="#e2e2e2"/><path d="M401,-60L397,55L644,63Z" fill="#e4e4e4" stroke="#e4e4e4"/><path d="M401,-60L644,63L650,-170Z" fill="#e1e1e1" stroke="#e1e1e1"/><path d="M650,-170L644,63L859,-184Z" fill="#d9d9d9" stroke="#d9d9d9"/><path d="M859,-184L644,63L892,86Z" fill="#d3d3d3" stroke="#d3d3d3"/><path d="M859,-184L892,86L1134,-141Z" fill="#c8c8c8" stroke="#c8c8c8"/><path d="M859,-184L1134,-141L1270,-169Z" fill="#bfbfbf" stroke="#bfbfbf"/><path d="M1134,-141L892,86L1128,86Z" fill="#c1c1c1" stroke="#c1c1c1"/><path d="M1134,-141L1128,86L1270,-169Z" fill="#b8b8b8" stroke="#b8b8b8"/><path d="M1270,-169L1128,86L1345,129Z" fill="#b3b3b3" stroke="#b3b3b3"/><path d="M1270,-169L1345,129L1543,-65Z" fill="#aaaaaa" stroke="#aaaaaa"/><path d="M1270,-169L1543,-65L1744,-69Z" fill="#a0a0a0" stroke="#a0a0a0"/><path d="M1270,-169L1744,-69L2038,-73Z" fill="#959595" stroke="#959595"/><path d="M1543,-65L1345,129L1574,72Z" fill="#a1a1a1" stroke="#a1a1a1"/><path d="M1543,-65L1574,72L1744,-69Z" fill="#999999" stroke="#999999"/><path d="M1744,-69L1574,72L1802,149Z" fill="#919191" stroke="#919191"/><path d="M1744,-69L1802,149L2038,-73Z" fill="#888888" stroke="#888888"/><path d="M2038,-73L1802,149L2055,158Z" fill="#7e7e7e" stroke="#7e7e7e"/><path d="M-123,139L-173,337L115,108Z" fill="#f1f1f1" stroke="#f1f1f1"/><path d="M115,108L-173,337L178,400Z" fill="#e9e9e9" stroke="#e9e9e9"/><path d="M115,108L178,400L333,312Z" fill="#e3e3e3" stroke="#e3e3e3"/><path d="M115,108L333,312L397,55Z" fill="#e5e5e5" stroke="#e5e5e5"/><path d="M397,55L333,312L656,354Z" fill="#dadada" stroke="#dadada"/><path d="M397,55L656,354L644,63Z" fill="#dadada" stroke="#dadada"/><path d="M644,63L656,354L892,86Z" fill="#d0d0d0" stroke="#d0d0d0"/><path d="M892,86L656,354L802,396Z" fill="#c7c7c7" stroke="#c7c7c7"/><path d="M892,86L802,396L1072,315Z" fill="#bebebe" stroke="#bebebe"/><path d="M892,86L1072,315L1128,86Z" fill="#bbbbbb" stroke="#bbbbbb"/><path d="M1128,86L1072,315L1345,129Z" fill="#b0b0b0" stroke="#b0b0b0"/><path d="M1345,129L1072,315L1382,402Z" fill="#a5a5a5" stroke="#a5a5a5"/><path d="M1345,129L1382,402L1500,384Z" fill="#9a9a9a" stroke="#9a9a9a"/><path d="M1345,129L1500,384L1574,72Z" fill="#9b9b9b" stroke="#9b9b9b"/><path d="M1574,72L1500,384L1799,299Z" fill="#8e8e8e" stroke="#8e8e8e"/><path d="M1574,72L1799,299L1802,149Z" fill="#8a8a8a" stroke="#8a8a8a"/><path d="M1802,149L1799,299L2055,158Z" fill="#7d7d7d" stroke="#7d7d7d"/><path d="M2055,158L1799,299L1977,410Z" fill="#757575" stroke="#757575"/><path d="M2055,158L1977,410L2046,536Z" fill="#696969" stroke="#696969"/><path d="M2055,158L2046,536L2101,855Z" fill="#515151" stroke="#515151"/><path d="M-173,337L-139,847L-94,546Z" fill="#c4c4c4" stroke="#c4c4c4"/><path d="M-173,337L-94,546L178,400Z" fill="#d9d9d9" stroke="#d9d9d9"/><path d="M178,400L-94,546L66,614Z" fill="#c6c6c6" stroke="#c6c6c6"/><path d="M178,400L66,614L395,609Z" fill="#bcbcbc" stroke="#bcbcbc"/><path d="M178,400L395,609L333,312Z" fill="#c9c9c9" stroke="#c9c9c9"/><path d="M333,312L395,609L656,354Z" fill="#c6c6c6" stroke="#c6c6c6"/><path d="M656,354L395,609L551,644Z" fill="#b0b0b0" stroke="#b0b0b0"/><path d="M656,354L551,644L802,396Z" fill="#b6b6b6" stroke="#b6b6b6"/><path d="M802,396L551,644L895,621Z" fill="#a2a2a2" stroke="#a2a2a2"/><path d="M802,396L895,621L1072,315Z" fill="#a7a7a7" stroke="#a7a7a7"/><path d="M1072,315L895,621L1108,647Z" fill="#939393" stroke="#939393"/><path d="M1072,315L1108,647L1382,402Z" fill="#939393" stroke="#939393"/><path d="M1382,402L1108,647L1328,620Z" fill="#7c7c7c" stroke="#7c7c7c"/><path d="M1382,402L1328,620L1553,652Z" fill="#727272" stroke="#727272"/><path d="M1382,402L1553,652L1500,384Z" fill="#7b7b7b" stroke="#7b7b7b"/><path d="M1500,384L1553,652L1742,572Z" fill="#696969" stroke="#696969"/><path d="M1500,384L1742,572L1799,299Z" fill="#777777" stroke="#777777"/><path d="M1799,299L1742,572L1977,410Z" fill="#6a6a6a" stroke="#6a6a6a"/><path d="M1977,410L1742,572L2046,536Z" fill="#575757" stroke="#575757"/><path d="M-94,546L-139,847L66,614Z" fill="#b2b2b2" stroke="#b2b2b2"/><path d="M66,614L-139,847L107,863Z" fill="#9e9e9e" stroke="#9e9e9e"/><path d="M66,614L107,863L394,818Z" fill="#989898" stroke="#989898"/><path d="M66,614L394,818L395,609Z" fill="#a2a2a2" stroke="#a2a2a2"/><path d="M395,609L394,818L551,644Z" fill="#9a9a9a" stroke="#9a9a9a"/><path d="M551,644L394,818L592,870Z" fill="#898989" stroke="#898989"/><path d="M551,644L592,870L877,816Z" fill="#828282" stroke="#828282"/><path d="M551,644L877,816L895,621Z" fill="#898989" stroke="#898989"/><path d="M895,621L877,816L1108,647Z" fill="#7b7b7b" stroke="#7b7b7b"/><path d="M1108,647L877,816L1038,870Z" fill="#6a6a6a" stroke="#6a6a6a"/><path d="M1108,647L1038,870L1273,785Z" fill="#636363" stroke="#636363"/><path d="M1108,647L1273,785L1328,620Z" fill="#6a6a6a" stroke="#6a6a6a"/><path d="M1328,620L1273,785L1531,795Z" fill="#585858" stroke="#585858"/><path d="M1328,620L1531,795L1553,652Z" fill="#585858" stroke="#585858"/><path d="M1553,652L1531,795L1744,784Z" fill="#464646" stroke="#464646"/><path d="M1553,652L1744,784L1742,572Z" fill="#4d4d4d" stroke="#4d4d4d"/><path d="M1742,572L1744,784L2046,536Z" fill="#484848" stroke="#484848"/><path d="M2046,536L1744,784L2101,855Z" fill="#303030" stroke="#303030"/><path d="M-139,847L-71,1305L-80,1016Z" fill="#7c7c7c" stroke="#7c7c7c"/><path d="M-139,847L-80,1016L107,863Z" fill="#8a8a8a" stroke="#8a8a8a"/><path d="M107,863L-80,1016L80,1058Z" fill="#7b7b7b" stroke="#7b7b7b"/><path d="M107,863L80,1058L323,1137Z" fill="#717171" stroke="#717171"/><path d="M107,863L323,1137L394,818Z" fill="#787878" stroke="#787878"/><path d="M394,818L323,1137L592,870Z" fill="#717171" stroke="#717171"/><path d="M592,870L323,1137L595,1140Z" fill="#646464" stroke="#646464"/><path d="M592,870L595,1140L850,1125Z" fill="#5c5c5c" stroke="#5c5c5c"/><path d="M592,870L850,1125L877,816Z" fill="#606060" stroke="#606060"/><path d="M877,816L850,1125L1023,1092Z" fill="#4b4b4b" stroke="#4b4b4b"/><path d="M877,816L1023,1092L1038,870Z" fill="#545454" stroke="#545454"/><path d="M1038,870L1023,1092L1348,1044Z" fill="#3c3c3c" stroke="#3c3c3c"/><path d="M1038,870L1348,1044L1273,785Z" fill="#474747" stroke="#474747"/><path d="M1273,785L1348,1044L1531,795Z" fill="#404040" stroke="#404040"/><path d="M1531,795L1348,1044L1550,1023Z" fill="#2c2c2c" stroke="#2c2c2c"/><path d="M1531,795L1550,1023L1744,784Z" fill="#313131" stroke="#313131"/><path d="M1744,784L1550,1023L1739,1076Z" fill="#1d1d1d" stroke="#1d1d1d"/><path d="M1744,784L1739,1076L2101,855Z" fill="#191919" stroke="#191919"/><path d="M2101,855L1739,1076L2088,1091Z" fill="#010101" stroke="#010101"/><path d="M-80,1016L-71,1305L80,1058Z" fill="#797979" stroke="#797979"/><path d="M80,1058L-71,1305L126,1317Z" fill="#767676" stroke="#767676"/><path d="M80,1058L126,1317L323,1137Z" fill="#717171" stroke="#717171"/><path d="M323,1137L126,1317L306,1365Z" fill="#6e6e6e" stroke="#6e6e6e"/><path d="M323,1137L306,1365L595,1140Z" fill="#686868" stroke="#686868"/><path d="M595,1140L306,1365L628,1357Z" fill="#646464" stroke="#646464"/><path d="M595,1140L628,1357L806,1351Z" fill="#5c5c5c" stroke="#5c5c5c"/><path d="M595,1140L806,1351L850,1125Z" fill="#575757" stroke="#575757"/><path d="M850,1125L806,1351L1040,1325Z" fill="#4d4d4d" stroke="#4d4d4d"/><path d="M850,1125L1040,1325L1023,1092Z" fill="#474747" stroke="#474747"/><path d="M1023,1092L1040,1325L1289,1281Z" fill="#3d3d3d" stroke="#3d3d3d"/><path d="M1023,1092L1289,1281L1348,1044Z" fill="#363636" stroke="#363636"/><path d="M1348,1044L1289,1281L1503,1332Z" fill="#2b2b2b" stroke="#2b2b2b"/><path d="M1348,1044L1503,1332L1550,1023Z" fill="#252525" stroke="#252525"/><path d="M1550,1023L1503,1332L1739,1076Z" fill="#1b1b1b" stroke="#1b1b1b"/><path d="M1739,1076L1503,1332L1763,1271Z" fill="#161616" stroke="#161616"/><path d="M1739,1076L1763,1271L2088,1091Z" fill="#090909" stroke="#090909"/><path d="M2088,1091L1763,1271L2036,1349Z" fill="#020202" stroke="#020202"/><path d="M-71,1305L306,1365L126,1317Z" fill="#737373" stroke="#737373"/><path d="M306,1365L2036,1349L628,1357Z" fill="#464646" stroke="#464646"/><path d="M628,1357L2036,1349L806,1351Z" fill="#3a3a3a" stroke="#3a3a3a"/><path d="M806,1351L2036,1349L1503,1332Z" fill="#262626" stroke="#262626"/><path d="M806,1351L1503,1332L1040,1325Z" fill="#3d3d3d" stroke="#3d3d3d"/><path d="M1040,1325L1503,1332L1289,1281Z" fill="#323232" stroke="#323232"/><path d="M1503,1332L2036,1349L1763,1271Z" fill="#0f0f0f" stroke="#0f0f0f"/></g></svg>